<?xml version="1.0" standalone="no"?>
<!DOCTYPE svg PUBLIC "-//W3C//DTD SVG 20010904//EN"
 "http://www.w3.org/TR/2001/REC-SVG-20010904/DTD/svg10.dtd">
<svg version="1.0" xmlns="http://www.w3.org/2000/svg"
 width="866.000000pt" height="650.000000pt" viewBox="0 0 866.000000 650.000000"
 preserveAspectRatio="xMidYMid meet">

<g transform="translate(0.000000,650.000000) scale(0.100000,-0.100000)"
fill="#000000" stroke="none">
<path d="M898 3648 c16 -30 48 -66 71 -83 42 -30 44 -30 209 -35 l167 -5 3
-357 2 -358 85 0 85 0 0 354 c0 313 2 355 16 360 9 3 81 6 160 6 159 0 192 9
245 67 24 25 59 83 59 98 0 3 -255 5 -566 5 l-566 0 30 -52z"/>
<path d="M2440 3689 c0 -19 43 -83 74 -109 58 -50 50 -49 435 -50 l364 0 43
25 c40 24 104 104 104 132 0 11 -93 13 -510 13 -373 0 -510 -3 -510 -11z"/>
<path d="M3980 3435 l0 -265 400 0 400 0 0 -95 0 -95 -322 0 c-354 0 -358 -1
-442 -65 -29 -22 -86 -92 -86 -106 0 -2 217 -3 482 -1 266 1 495 2 511 2 l27
0 0 265 0 265 -402 2 -403 3 -3 93 -3 92 318 0 c350 1 353 1 425 65 35 32 68
78 68 95 0 7 -157 10 -485 10 l-485 0 0 -265z"/>
<path d="M5450 3255 l0 -445 28 0 c807 -4 796 -5 860 54 24 21 62 86 62 106 0
7 -127 10 -390 10 l-390 0 0 360 0 360 -85 0 -85 0 0 -445z"/>
<path d="M6760 3695 c0 -17 42 -84 67 -106 68 -62 45 -59 441 -59 296 0 368 3
391 14 47 25 121 117 121 152 0 2 -229 4 -510 4 -280 0 -510 -2 -510 -5z"/>
<path d="M2440 3337 c0 -27 60 -107 101 -134 l43 -28 357 -3 c338 -3 360 -2
396 17 57 29 123 110 123 151 0 7 -161 10 -510 10 -413 0 -510 -2 -510 -13z"/>
<path d="M6780 3076 l0 -264 69 -4 c110 -5 101 -22 101 183 l0 179 320 0 320
0 0 -180 0 -180 85 0 85 0 0 265 0 265 -490 0 -490 0 0 -264z"/>
<path d="M2440 2968 c0 -20 40 -80 69 -106 61 -54 55 -53 444 -52 354 1 362 1
401 23 40 22 106 105 106 133 0 12 -82 14 -510 14 -401 0 -510 -3 -510 -12z"/>
</g>
</svg>
